<svg version="1.1" xmlns="http://www.w3.org/2000/svg" xmlns:xlink="http://www.w3.org/1999/xlink" x="0" y="0" viewBox="0, 0, 12, 16">
  <g id="Octicons">
    <path d="M11.415,9 L0.595,9 C0.005,9 0.005,8.59 0.005,8 C0.005,7.41 0.005,7 0.595,7 L11.405,7 C11.995,7 11.995,7.41 11.995,8 C11.995,8.59 11.995,9 11.405,9 L11.415,9 z M11.415,5 L0.595,5 C0.005,5 0.005,4.59 0.005,4 C0.005,3.41 0.005,3 0.595,3 L11.405,3 C11.995,3 11.995,3.41 11.995,4 C11.995,4.59 11.995,5 11.405,5 L11.415,5 z M0.595,11 L11.405,11 C11.995,11 11.995,11.41 11.995,12 C11.995,12.59 11.995,13 11.405,13 L0.595,13 C0.005,13 0.005,12.59 0.005,12 C0.005,11.41 0.005,11 0.595,11 L0.595,11 z" fill="#000000" id="Shape"/>
  </g>
</svg>
